<svg xmlns="http://www.w3.org/2000/svg" xmlns:xlink="http://www.w3.org/1999/xlink" width="600" zoomAndPan="magnify" viewBox="0 0 450 449.999984" height="600" preserveAspectRatio="xMidYMid meet" version="1.0"><defs><clipPath id="93ce2b3e7e"><path d="M 8.082031 8.082031 L 441.582031 8.082031 L 441.582031 441.582031 L 8.082031 441.582031 Z M 8.082031 8.082031 " clip-rule="nonzero"/></clipPath></defs><g clip-path="url(#93ce2b3e7e)"><path fill="#2197bd" d="M 441.585938 375.671875 C 441.585938 412.050781 412.09375 441.542969 375.710938 441.542969 L 73.96875 441.542969 C 37.589844 441.542969 8.101562 412.050781 8.101562 375.671875 L 8.101562 73.929688 C 8.101562 37.546875 37.589844 8.058594 73.96875 8.058594 L 375.710938 8.058594 C 412.09375 8.058594 441.585938 37.546875 441.585938 73.929688 Z M 441.585938 375.671875 " fill-opacity="1" fill-rule="nonzero"/></g><path fill="#ffffff" d="M 179.507812 162.710938 C 179.507812 163.773438 179.457031 164.832031 179.351562 165.886719 C 179.25 166.941406 179.09375 167.988281 178.886719 169.03125 C 178.679688 170.070312 178.421875 171.097656 178.113281 172.113281 C 177.804688 173.128906 177.449219 174.125 177.042969 175.105469 C 176.636719 176.085938 176.183594 177.042969 175.683594 177.976562 C 175.183594 178.914062 174.640625 179.820312 174.050781 180.703125 C 173.460938 181.585938 172.832031 182.4375 172.160156 183.257812 C 171.484375 184.074219 170.773438 184.859375 170.023438 185.609375 C 169.273438 186.359375 168.488281 187.070312 167.667969 187.746094 C 166.851562 188.417969 166 189.046875 165.117188 189.636719 C 164.234375 190.226562 163.328125 190.773438 162.390625 191.269531 C 161.457031 191.769531 160.5 192.222656 159.519531 192.628906 C 158.539062 193.035156 157.542969 193.394531 156.527344 193.699219 C 155.511719 194.007812 154.484375 194.265625 153.445312 194.472656 C 152.402344 194.679688 151.355469 194.835938 150.300781 194.9375 C 149.246094 195.042969 148.1875 195.09375 147.125 195.09375 C 146.066406 195.09375 145.007812 195.042969 143.953125 194.9375 C 142.898438 194.835938 141.847656 194.679688 140.808594 194.472656 C 139.769531 194.265625 138.742188 194.007812 137.726562 193.699219 C 136.710938 193.394531 135.714844 193.035156 134.734375 192.628906 C 133.753906 192.222656 132.796875 191.769531 131.859375 191.269531 C 130.925781 190.773438 130.015625 190.226562 129.136719 189.636719 C 128.253906 189.046875 127.402344 188.417969 126.582031 187.746094 C 125.761719 187.070312 124.976562 186.359375 124.226562 185.609375 C 123.476562 184.859375 122.765625 184.074219 122.09375 183.253906 C 121.421875 182.4375 120.789062 181.585938 120.199219 180.703125 C 119.613281 179.820312 119.066406 178.914062 118.566406 177.976562 C 118.066406 177.042969 117.613281 176.085938 117.207031 175.105469 C 116.804688 174.125 116.445312 173.128906 116.136719 172.113281 C 115.832031 171.097656 115.574219 170.070312 115.367188 169.03125 C 115.160156 167.988281 115.003906 166.941406 114.898438 165.886719 C 114.796875 164.832031 114.742188 163.773438 114.742188 162.710938 C 114.742188 161.652344 114.796875 160.59375 114.898438 159.539062 C 115.003906 158.484375 115.160156 157.433594 115.367188 156.394531 C 115.574219 155.355469 115.832031 154.328125 116.136719 153.3125 C 116.445312 152.296875 116.804688 151.300781 117.207031 150.320312 C 117.613281 149.339844 118.066406 148.382812 118.566406 147.449219 C 119.066406 146.511719 119.613281 145.605469 120.199219 144.722656 C 120.789062 143.839844 121.421875 142.988281 122.09375 142.167969 C 122.765625 141.347656 123.476562 140.566406 124.226562 139.816406 C 124.976562 139.066406 125.761719 138.351562 126.582031 137.679688 C 127.402344 137.007812 128.253906 136.375 129.136719 135.789062 C 130.015625 135.199219 130.925781 134.652344 131.859375 134.152344 C 132.796875 133.652344 133.753906 133.199219 134.734375 132.792969 C 135.714844 132.390625 136.710938 132.03125 137.726562 131.722656 C 138.742188 131.417969 139.769531 131.160156 140.808594 130.953125 C 141.847656 130.746094 142.898438 130.589844 143.953125 130.484375 C 145.007812 130.382812 146.066406 130.328125 147.125 130.328125 C 148.1875 130.328125 149.246094 130.382812 150.300781 130.484375 C 151.355469 130.589844 152.402344 130.746094 153.445312 130.953125 C 154.484375 131.160156 155.511719 131.417969 156.527344 131.722656 C 157.542969 132.03125 158.539062 132.390625 159.519531 132.792969 C 160.5 133.199219 161.457031 133.652344 162.390625 134.152344 C 163.328125 134.652344 164.234375 135.199219 165.117188 135.789062 C 166 136.375 166.851562 137.007812 167.667969 137.679688 C 168.488281 138.351562 169.273438 139.066406 170.023438 139.816406 C 170.773438 140.566406 171.484375 141.347656 172.160156 142.167969 C 172.832031 142.988281 173.460938 143.839844 174.050781 144.722656 C 174.640625 145.605469 175.183594 146.511719 175.683594 147.449219 C 176.183594 148.382812 176.636719 149.339844 177.042969 150.320312 C 177.449219 151.300781 177.804688 152.296875 178.113281 153.3125 C 178.421875 154.328125 178.679688 155.355469 178.886719 156.394531 C 179.09375 157.433594 179.25 158.484375 179.351562 159.539062 C 179.457031 160.59375 179.507812 161.652344 179.507812 162.710938 Z M 179.507812 162.710938 " fill-opacity="1" fill-rule="nonzero"/><path fill="#ffffff" d="M 119.210938 218.96875 L 174.84375 218.96875 L 174.84375 397.9375 L 119.210938 397.9375 Z M 119.210938 218.96875 " fill-opacity="1" fill-rule="nonzero"/><path fill="#ffffff" d="M 209.832031 218.96875 L 262.78125 218.96875 L 262.78125 397.9375 L 209.832031 397.9375 Z M 209.832031 218.96875 " fill-opacity="1" fill-rule="nonzero"/><path fill="#ffffff" d="M 212.121094 314.257812 L 265.070312 314.257812 L 265.070312 397.9375 L 212.121094 397.9375 Z M 212.121094 314.257812 " fill-opacity="1" fill-rule="nonzero"/><path fill="#ffffff" d="M 265.070312 314.257812 C 265.070312 314.257812 264.242188 291.042969 270.363281 278.976562 C 270.363281 278.976562 276.488281 264.109375 295.730469 264.023438 C 295.730469 264.023438 318.296875 260.082031 324.769531 282.476562 C 324.769531 282.476562 327.21875 294.894531 327.21875 300.144531 C 327.21875 305.394531 327.394531 397.9375 327.394531 397.9375 L 382.851562 397.9375 L 382.851562 295.421875 C 382.851562 295.421875 386.875 237.515625 352.117188 221.652344 C 352.117188 221.652344 294.96875 195.992188 263.949219 243.113281 C 263.949219 243.113281 257.183594 247.773438 256.25 234.714844 C 255.316406 221.652344 247.386719 254.773438 247.152344 255.476562 C 246.921875 256.175781 256.25 321.488281 256.25 321.488281 Z M 265.070312 314.257812 " fill-opacity="1" fill-rule="nonzero"/></svg>