<svg xmlns="http://www.w3.org/2000/svg" xmlns:xlink="http://www.w3.org/1999/xlink" width="500" zoomAndPan="magnify" viewBox="0 0 375 374.999991" height="500" preserveAspectRatio="xMidYMid meet" version="1.0"><defs><clipPath id="3712511044"><path d="M 54.636719 73.402344 L 320.136719 73.402344 L 320.136719 301.402344 L 54.636719 301.402344 Z M 54.636719 73.402344 " clip-rule="nonzero"/></clipPath></defs><rect x="-37.5" width="450" fill="#ffffff" y="-37.499999" height="449.999989" fill-opacity="1"/><rect x="-37.5" width="450" fill="#01342d" y="-37.499999" height="449.999989" fill-opacity="1"/><g clip-path="url(#3712511044)"><path fill="#abb14d" d="M 258.71875 86.71875 C 234.191406 93.921875 210.375 103.402344 187.863281 114.894531 C 187.734375 114.960938 187.640625 115.027344 187.515625 115.085938 C 187.382812 115.019531 187.257812 114.953125 187.128906 114.894531 C 164.617188 103.402344 140.796875 93.921875 116.304688 86.71875 C 96.199219 80.761719 75.511719 76.3125 54.636719 73.460938 L 54.636719 301.53125 C 64.433594 284.628906 75.605469 268.453125 88.03125 253.183594 C 93.414062 246.554688 99.015625 240.152344 104.839844 233.941406 C 124.820312 212.519531 147.265625 193.535156 171.757812 177.335938 C 176.914062 173.90625 182.164062 170.609375 187.507812 167.441406 C 202.8125 158.375 218.761719 150.375 235.25 143.585938 C 239.667969 141.726562 244.152344 140 248.628906 138.335938 L 270.175781 130.425781 L 270.175781 233.949219 C 276.003906 240.160156 281.609375 246.5625 286.984375 253.191406 C 299.410156 268.464844 310.582031 284.632812 320.382812 301.535156 L 320.382812 73.460938 C 299.511719 76.3125 278.832031 80.761719 258.71875 86.71875 Z M 104.839844 170.511719 L 104.839844 130.421875 L 126.386719 138.332031 C 130.871094 139.996094 135.351562 141.722656 139.769531 143.582031 C 127.671875 151.910156 116.019531 160.871094 104.839844 170.511719 Z M 104.839844 170.511719 " fill-opacity="1" fill-rule="nonzero"/></g></svg>