<svg xmlns="http://www.w3.org/2000/svg" xmlns:xlink="http://www.w3.org/1999/xlink" width="600" zoomAndPan="magnify" viewBox="0 0 450 449.999984" height="600" preserveAspectRatio="xMidYMid meet" version="1.0"><defs><clipPath id="a0d117e1a1"><path d="M 33 22.5 L 419 22.5 L 419 425 L 33 425 Z M 33 22.5 " clip-rule="nonzero"/></clipPath></defs><path fill="#000000" d="M 392.632812 272.144531 C 392.632812 272.167969 392.621094 272.175781 392.597656 272.175781 C 392.578125 272.175781 392.566406 272.167969 392.566406 272.144531 C 392.566406 272.121094 392.578125 272.109375 392.597656 272.109375 C 392.621094 272.109375 392.632812 272.121094 392.632812 272.144531 Z M 392.632812 272.144531 " fill-opacity="1" fill-rule="nonzero"/><path fill="#32648d" d="M 343.003906 268.964844 L 343.035156 268.996094 L 343.035156 269.015625 L 342.984375 269.03125 C 340.558594 269.917969 338.546875 270.285156 336.855469 271.039062 C 335.132812 271.726562 333.742188 272.980469 332.921875 274.585938 L 332.90625 274.621094 C 331.867188 276.546875 330.960938 279.960938 331.230469 285.765625 C 331.917969 286.269531 332.753906 286.652344 333.609375 286.921875 L 333.675781 286.9375 C 336.503906 287.808594 341.242188 288.378906 346.535156 288.292969 C 357.085938 288.175781 370.078125 285.683594 376.976562 282.4375 C 382.921875 279.609375 388.011719 276.195312 392.550781 272.144531 C 369.507812 276.964844 356.5 275.675781 348.511719 272.34375 C 346.433594 271.441406 344.609375 270.320312 343.003906 268.964844 Z M 343.003906 268.964844 " fill-opacity="1" fill-rule="nonzero"/><path fill="#32648d" d="M 319.375 91.96875 L 319.476562 92.121094 L 319.59375 92.253906 Z M 319.375 91.96875 " fill-opacity="1" fill-rule="nonzero"/><path fill="#32648d" d="M 231.25 345.480469 C 231.230469 345.0625 231.25 344.625 231.230469 344.207031 C 231.230469 344.039062 231.214844 343.921875 231.214844 343.753906 Z M 231.25 345.480469 " fill-opacity="1" fill-rule="nonzero"/><path fill="#32648d" d="M 213.582031 271.625 C 212.613281 271.140625 211.472656 270.789062 210.25 270.621094 L 210.199219 270.621094 L 210.199219 270.585938 L 209.847656 270.585938 C 208.976562 270.671875 207.707031 270.972656 205.226562 273.734375 C 199.46875 280.261719 197.457031 284.359375 192.703125 288.191406 C 187.945312 292.007812 181.785156 294.050781 169.460938 296.609375 C 165.558594 297.414062 163.316406 298.300781 161.84375 299.019531 C 162.328125 299.421875 162.277344 299.523438 162.996094 299.90625 C 164.804688 300.914062 167.117188 301.800781 168.992188 302.285156 C 174.28125 303.625 182.992188 305.179688 192.066406 303.625 C 201.140625 302.050781 210.585938 297.648438 218.640625 286.21875 C 220.03125 284.242188 220.179688 281.332031 219.042969 278.203125 C 217.902344 275.074219 215.359375 272.378906 213.582031 271.625 Z M 213.582031 271.625 " fill-opacity="1" fill-rule="nonzero"/><path fill="#32648d" d="M 281.199219 47.636719 L 280.242188 47.820312 C 280.5625 47.753906 280.914062 47.71875 281.230469 47.652344 C 281.214844 47.652344 281.214844 47.636719 281.199219 47.636719 Z M 281.199219 47.636719 " fill-opacity="1" fill-rule="nonzero"/><path fill="#32648d" d="M 327.78125 137.976562 C 316.546875 138.125 310.25 141.054688 306.933594 144.886719 C 302.246094 150.324219 301.808594 159.867188 304.722656 171.613281 C 307.621094 183.378906 313.597656 196.53125 319.226562 207.460938 C 322.039062 212.933594 324.765625 217.855469 326.960938 221.855469 C 329.171875 225.871094 330.796875 228.714844 331.78125 231.140625 C 332.6875 233.382812 333.707031 235.359375 334.730469 237.199219 C 339.082031 227.910156 339.855469 218.792969 339.417969 209.285156 C 338.847656 197.519531 336.136719 185.488281 336.539062 173.304688 C 336.992188 159.0625 339.769531 149.789062 340.003906 138.777344 C 336.335938 138.277344 332.085938 137.976562 327.78125 137.976562 Z M 329.859375 146.445312 L 329.839844 146.578125 C 329.839844 146.628906 329.839844 146.675781 329.839844 146.746094 C 329.839844 147.515625 329.621094 148.25 329.238281 148.851562 L 329.253906 148.835938 C 328.734375 149.789062 328.132812 150.628906 327.429688 151.347656 C 325.789062 153.171875 323.59375 154.441406 321.117188 154.878906 L 321.050781 154.894531 C 320.699219 154.945312 320.296875 154.960938 319.878906 154.960938 C 317.769531 154.960938 315.824219 154.292969 314.234375 153.15625 L 314.269531 153.171875 C 313.449219 152.601562 312.726562 151.949219 312.140625 151.214844 L 312.125 151.195312 C 311.605469 150.628906 311.238281 149.890625 311.085938 149.105469 L 311.085938 149.070312 C 311.085938 148.988281 311.070312 148.902344 311.070312 148.820312 C 311.070312 148.101562 311.339844 147.429688 311.789062 146.929688 C 312.324219 146.308594 312.960938 145.808594 313.699219 145.4375 L 313.730469 145.421875 C 315.324219 144.519531 317.464844 143.847656 319.894531 143.480469 C 320.796875 143.347656 321.703125 143.28125 322.539062 143.261719 L 322.539062 143.3125 L 323.359375 143.3125 C 324.449219 143.347656 325.453125 143.464844 326.339844 143.683594 C 327.230469 143.882812 328 144.183594 328.617188 144.601562 C 329.238281 145.019531 329.707031 145.65625 329.859375 146.445312 Z M 329.859375 146.445312 " fill-opacity="1" fill-rule="nonzero"/><path fill="#32648d" d="M 143.507812 211.730469 C 143.507812 208.714844 143.742188 205.769531 144.175781 202.875 L 144.144531 203.195312 C 145.851562 190.824219 146.085938 179.261719 145.882812 170.125 C 145.683594 161.222656 145.046875 155.296875 145.046875 151.597656 C 145.046875 151.546875 145.046875 151.496094 145.046875 151.449219 C 145.046875 151.398438 145.046875 151.332031 145.046875 151.28125 L 145.046875 151.195312 L 145.03125 151.097656 L 145.03125 151.078125 C 145.03125 151.046875 145.03125 151.027344 145.03125 150.996094 C 145.03125 131.179688 148.511719 112.1875 154.824219 94.5625 C 159.464844 82.113281 166.363281 69.476562 176.695312 59.234375 C 166.53125 55.855469 148.511719 50.699219 128.988281 49.730469 C 127.113281 49.628906 124.921875 49.5625 122.726562 49.5625 L 122.710938 49.5625 L 122.710938 49.578125 C 120.617188 49.578125 118.507812 49.644531 116.429688 49.761719 C 99.71875 50.734375 83.914062 55.636719 72.625 67.753906 C 61.308594 79.871094 53.855469 99.734375 55.480469 132.621094 C 55.796875 138.84375 58.476562 156.285156 63.066406 177.003906 C 67.671875 197.722656 74.148438 222.105469 81.953125 243.644531 C 89.773438 265.183594 99.25 283.925781 108.257812 292.796875 C 112.796875 297.230469 116.730469 299.019531 120.296875 298.871094 C 123.882812 298.703125 128.203125 296.613281 133.476562 290.203125 C 143.839844 277.582031 153.636719 266.421875 163.75 255.574219 L 163.414062 255.925781 C 151.191406 245.132812 143.507812 229.351562 143.507812 211.730469 Z M 143.507812 211.730469 " fill-opacity="1" fill-rule="nonzero"/><path fill="#32648d" d="M 232.570312 48.742188 L 232.570312 48.707031 C 213.011719 48.757812 199 54.734375 188.347656 63.6875 C 177.382812 72.941406 170.03125 85.609375 165.191406 98.578125 C 159.449219 113.976562 157.488281 128.871094 156.703125 138.980469 L 156.917969 138.84375 C 162.828125 135.5 170.582031 132.152344 178.886719 130.210938 C 187.191406 128.269531 196.136719 127.683594 204.238281 130.863281 C 212.34375 134.042969 219.042969 141.523438 221.46875 152.871094 C 233.105469 207.378906 217.851562 227.644531 212.226562 242.941406 C 210.433594 247.34375 208.574219 253 207.019531 258.773438 L 206.75 259.894531 C 207.453125 259.726562 208.175781 259.527344 208.878906 259.457031 C 212.847656 259.125 215.960938 260.460938 217.800781 261.265625 C 223.460938 263.640625 227.347656 268.628906 229.441406 274.320312 C 229.992188 275.808594 230.378906 277.414062 230.613281 279.074219 C 230.828125 279.640625 230.945312 280.3125 230.945312 280.996094 C 230.945312 281.0625 230.945312 281.132812 230.945312 281.199219 C 230.679688 289.566406 230.511719 299.390625 230.511719 309.261719 C 230.511719 320.960938 230.746094 332.609375 231.179688 344.207031 C 231.566406 353.011719 232.117188 360.808594 232.804688 366.949219 C 233.527344 373.210938 234.53125 377.945312 235.167969 379.550781 C 237.277344 384.90625 240.375 391.921875 245.96875 396.691406 C 251.558594 401.441406 259.582031 404.621094 274.230469 401.441406 C 286.941406 398.679688 294.777344 394.847656 300.019531 389.34375 C 305.257812 383.835938 308.375 376.171875 310.367188 364.441406 C 313.363281 346.867188 319.375 295.910156 320.113281 286.320312 C 319.777344 279.089844 320.832031 273.53125 323.125 269.300781 C 325.46875 264.949219 329.121094 262.285156 332.253906 260.847656 C 333.824219 260.128906 335.300781 259.640625 336.503906 259.292969 C 335.03125 257.164062 333.707031 255.390625 332.335938 253.667969 L 332.488281 253.851562 C 328.148438 248.5625 324.449219 242.488281 321.652344 235.945312 L 321.46875 235.460938 C 319.777344 231.960938 318.355469 229.316406 316.863281 226.722656 L 317.214844 227.375 C 315.023438 223.359375 312.242188 218.339844 309.328125 212.699219 C 303.5 201.402344 297.171875 187.714844 293.875 174.375 C 290.589844 161.054688 290.121094 147.261719 298.527344 137.539062 C 305.964844 128.90625 319.039062 125.324219 338.648438 127.332031 C 338.078125 125.574219 337.726562 124.117188 336.738281 121.773438 C 331.96875 110.5625 326.222656 100.890625 319.410156 92.121094 C 302.78125 70.664062 275.90625 49.425781 234.414062 48.742188 Z M 232.570312 48.742188 " fill-opacity="1" fill-rule="nonzero"/><path fill="#32648d" d="M 156.46875 152.535156 L 156.5 152.519531 L 156.550781 152.46875 Z M 156.46875 152.535156 " fill-opacity="1" fill-rule="nonzero"/><path fill="#32648d" d="M 181.082031 141.207031 L 181.25 141.1875 L 181.382812 141.136719 Z M 181.082031 141.207031 " fill-opacity="1" fill-rule="nonzero"/><path fill="#32648d" d="M 201.828125 239.007812 C 208.542969 220.699219 221.753906 207.34375 210.636719 155.230469 C 208.8125 146.695312 205.210938 143.246094 200.253906 141.304688 C 197.84375 140.417969 195.046875 139.898438 192.117188 139.898438 C 191.933594 139.898438 191.730469 139.898438 191.546875 139.898438 L 191.582031 139.898438 C 188.015625 139.933594 184.5625 140.386719 181.25 141.1875 C 174.214844 142.960938 168.019531 145.472656 162.261719 148.6875 C 160.101562 149.875 158.242188 151.113281 156.5 152.5 L 156.183594 152.804688 C 156.28125 155.246094 156.75 161.171875 156.953125 169.890625 C 157.152344 179.429688 156.917969 191.597656 155.09375 204.765625 C 151.140625 233.382812 171.671875 257.082031 195.785156 257.117188 C 197.207031 251.242188 199.515625 245.285156 201.828125 239.007812 Z M 187.578125 155.847656 C 186.792969 155.046875 186.15625 154.140625 185.636719 153.15625 L 185.601562 153.085938 C 185.167969 152.382812 184.914062 151.53125 184.914062 150.609375 C 184.914062 150.441406 184.933594 150.277344 184.949219 150.109375 L 184.949219 150.125 C 185.199219 148.316406 186.675781 147.378906 188.097656 146.863281 C 189.421875 146.425781 190.894531 146.175781 192.46875 146.175781 C 192.703125 146.175781 192.9375 146.175781 193.203125 146.191406 L 193.1875 146.125 C 194.058594 146.125 194.996094 146.210938 195.933594 146.34375 C 198.460938 146.695312 200.722656 147.378906 202.429688 148.382812 C 203.285156 148.851562 204.023438 149.4375 204.609375 150.140625 L 204.625 150.160156 C 205.195312 150.8125 205.527344 151.664062 205.527344 152.617188 C 205.527344 152.753906 205.527344 152.886719 205.511719 153.019531 L 205.511719 153.003906 C 205.34375 154.007812 204.890625 154.878906 204.273438 155.582031 C 203.585938 156.417969 202.816406 157.136719 201.945312 157.738281 L 201.910156 157.757812 C 200.21875 158.996094 198.09375 159.730469 195.800781 159.730469 C 195.347656 159.730469 194.894531 159.699219 194.460938 159.648438 L 194.511719 159.648438 C 191.730469 159.179688 189.351562 157.808594 187.578125 155.847656 Z M 187.578125 155.847656 " fill-opacity="1" fill-rule="nonzero"/><path fill="#32648d" d="M 161.925781 148.851562 C 162.042969 148.785156 162.160156 148.753906 162.261719 148.6875 C 162.277344 148.6875 162.292969 148.667969 162.3125 148.652344 Z M 161.925781 148.851562 " fill-opacity="1" fill-rule="nonzero"/><path fill="#32648d" d="M 328.332031 85.292969 C 335.585938 94.578125 341.863281 105.15625 346.703125 116.503906 L 347.054688 117.425781 C 348.878906 121.84375 350.101562 125.574219 350.789062 128.46875 C 351.140625 129.925781 351.375 131.148438 351.457031 132.417969 C 351.492188 133.054688 351.523438 133.707031 351.257812 134.828125 C 351.257812 134.878906 351.171875 134.996094 351.15625 135.046875 C 351.660156 149.707031 348.058594 159.648438 347.640625 173.636719 C 347.304688 183.78125 349.867188 195.695312 350.503906 208.699219 C 351.105469 220.917969 349.648438 234.339844 341.796875 247.507812 C 342.464844 248.3125 343.050781 249.117188 343.6875 249.917969 C 364.433594 216.867188 379.386719 180.300781 387.359375 149.121094 C 391.628906 132.335938 393.890625 117.121094 394.089844 105.074219 C 394.257812 93.023438 392.03125 84.289062 389.21875 80.640625 C 367.015625 51.921875 336.992188 44.609375 311.808594 44.40625 L 311.808594 44.421875 L 309.394531 44.421875 C 299.683594 44.574219 290.308594 45.695312 281.246094 47.652344 C 301.808594 56.890625 317.382812 71.117188 328.332031 85.292969 Z M 328.332031 85.292969 " fill-opacity="1" fill-rule="nonzero"/><g clip-path="url(#a0d117e1a1)"><path fill="#000000" d="M 235.335938 26.816406 L 235.167969 26.816406 C 215.675781 26.484375 198.949219 31.269531 185.433594 39.234375 C 172.140625 34.566406 144.5625 26.515625 115.476562 28.125 C 95.230469 29.246094 73.128906 35.46875 56.753906 52.957031 C 40.425781 70.449219 31.804688 97.507812 33.613281 134.328125 C 34.113281 144.484375 36.976562 161.054688 41.714844 182.507812 C 46.472656 203.964844 53.136719 229.082031 61.457031 251.996094 C 69.78125 274.921875 78.890625 295.507812 93.140625 309.496094 C 100.253906 316.511719 110.050781 322.402344 121.585938 321.914062 C 129.691406 321.582031 137.007812 317.984375 143.339844 312.675781 C 146.421875 316.777344 149.703125 318.566406 152.699219 320.226562 C 156.46875 322.316406 160.132812 323.738281 163.933594 324.675781 C 170.765625 326.402344 182.453125 328.710938 196.152344 326.351562 C 200.824219 325.5625 205.730469 324.023438 210.617188 321.832031 C 210.804688 327.355469 211.019531 332.761719 211.222656 338.234375 C 211.910156 355.570312 212.328125 371.585938 217.46875 385.628906 C 218.289062 387.921875 220.566406 399.734375 229.488281 410.160156 C 238.414062 420.605469 255.929688 427.113281 275.855469 422.796875 C 289.921875 419.75 307.789062 414.261719 319.675781 397.160156 C 331.414062 380.253906 336.707031 356.003906 337.761719 316.675781 C 338.027344 314.550781 338.347656 312.746094 338.664062 311.054688 L 341.460938 311.304688 L 341.796875 311.304688 C 356.800781 311.992188 373.074219 309.832031 386.671875 303.4375 C 398.710938 297.800781 407.820312 292.09375 414.46875 281.96875 C 416.125 279.457031 417.933594 276.429688 418.4375 271.207031 C 418.9375 265.984375 415.976562 257.816406 411.050781 254.054688 C 401.207031 246.488281 395.027344 249.367188 388.398438 250.757812 C 382.484375 252.144531 375.652344 253.015625 368.65625 253.199219 L 368.519531 253.199219 C 387.644531 220.617188 401.355469 186.007812 409.175781 155.378906 C 413.816406 137.304688 416.410156 120.636719 416.613281 106.058594 C 416.828125 91.484375 415.65625 78.582031 407.015625 67.417969 C 380.042969 32.542969 342.113281 22.902344 312.761719 22.566406 C 311.855469 22.550781 310.9375 22.535156 310.03125 22.550781 L 310.03125 22.5 C 294.058594 22.632812 278.6875 25.042969 264.136719 29.34375 L 263.449219 29.578125 C 255.042969 28.007812 245.28125 27 235.335938 26.816406 Z M 275.003906 37.476562 C 285.25 34.953125 297.039062 33.429688 309.160156 33.277344 L 309.261719 33.277344 L 309.277344 33.210938 C 337.039062 32.941406 372.488281 40.824219 397.957031 73.746094 C 403.683594 81.140625 405.390625 91.953125 405.191406 105.273438 C 404.972656 118.578125 402.546875 134.511719 398.09375 151.964844 C 389.453125 185.773438 373.140625 225.183594 350.167969 260.546875 C 350.921875 261.097656 351.792969 261.582031 352.695312 261.953125 L 352.78125 261.984375 C 357.570312 263.992188 368.503906 265.71875 390.324219 261.183594 C 395.816406 260.011719 399.832031 259.222656 404.003906 262.4375 C 405.878906 264.042969 407.050781 266.421875 407.050781 269.082031 C 407.050781 269.25 407.050781 269.417969 407.035156 269.582031 L 407.035156 269.566406 C 406.78125 271.691406 406.027344 273.601562 404.875 275.191406 C 400.652344 281.597656 392.332031 287.675781 381.683594 292.679688 C 372.238281 297.128906 358.691406 299.457031 346.6875 299.589844 C 340.65625 299.65625 335.117188 299.1875 330.394531 297.699219 L 330.09375 297.582031 C 328.265625 315.320312 324.082031 350.347656 321.351562 366.332031 C 319.175781 379.21875 315.355469 389.460938 308.054688 397.125 C 300.773438 404.789062 290.472656 409.410156 276.609375 412.421875 C 259.445312 416.152344 246.921875 412.136719 238.851562 405.257812 C 230.796875 398.398438 227.113281 389.292969 224.886719 383.71875 C 223.363281 379.871094 222.574219 374.882812 221.804688 368.222656 C 221.035156 361.5625 220.480469 353.410156 220.097656 344.222656 C 219.726562 334.886719 219.527344 323.90625 219.527344 312.878906 C 219.527344 309.246094 219.5625 305.632812 219.59375 302 C 212.679688 308.425781 203.9375 312.945312 194.226562 314.667969 L 193.925781 314.71875 C 182.523438 316.675781 172.359375 314.753906 166.277344 313.214844 C 163.046875 312.394531 160.234375 311.238281 157.589844 309.800781 C 154.808594 308.292969 152.164062 306.570312 150.386719 303.207031 C 149.683594 301.917969 149.265625 300.359375 149.265625 298.71875 C 149.265625 298.066406 149.332031 297.414062 149.46875 296.8125 C 150.070312 294.570312 151.328125 292.660156 153.050781 291.324219 L 153.066406 291.304688 C 156.351562 288.613281 160.667969 287.105469 167.21875 285.734375 C 179.105469 283.257812 183.257812 281.566406 185.785156 279.542969 C 187.929688 277.800781 190.375 274.285156 194.660156 269.132812 C 194.644531 268.980469 194.628906 268.730469 194.609375 268.496094 L 194.609375 268.445312 C 186.507812 268.210938 178.953125 266.019531 172.359375 262.320312 L 172.609375 262.453125 C 170.128906 265.097656 157.453125 278.652344 142.015625 297.464844 C 135.519531 305.332031 128.335938 309.847656 120.765625 310.167969 C 113.199219 310.484375 106.351562 306.636719 100.523438 300.929688 C 88.886719 289.5 79.609375 269.835938 71.519531 247.609375 C 63.449219 225.386719 56.886719 200.632812 52.214844 179.546875 C 47.527344 158.460938 44.78125 141.457031 44.378906 133.253906 C 42.636719 98.414062 50.691406 74.933594 64.503906 60.121094 C 78.335938 45.3125 97.292969 39.703125 115.761719 38.632812 C 148.933594 36.707031 180.410156 48.40625 186.792969 50.917969 C 199.082031 42.480469 214.90625 37.226562 234.648438 37.5625 C 244.59375 37.710938 254.15625 39.035156 263.296875 41.394531 L 262.460938 41.210938 L 262.796875 41.058594 C 265.992188 39.855469 270.078125 38.632812 274.265625 37.628906 Z M 275.003906 37.476562 " fill-opacity="1" fill-rule="nonzero"/></g></svg>