<svg xmlns="http://www.w3.org/2000/svg" xmlns:xlink="http://www.w3.org/1999/xlink" width="1920" zoomAndPan="magnify" viewBox="0 0 1440 809.999993" height="1080" preserveAspectRatio="xMidYMid meet" version="1.0"><defs><clipPath id="a185c11496"><rect x="0" width="1440" y="0" height="810"/></clipPath><clipPath id="08a82d9436"><path d="M 913 330 L 1050.886719 330 L 1050.886719 478 L 913 478 Z M 913 330 " clip-rule="nonzero"/></clipPath><clipPath id="d76484f45c"><path d="M 389.386719 333 L 520 333 L 520 473 L 389.386719 473 Z M 389.386719 333 " clip-rule="nonzero"/></clipPath></defs><g transform="matrix(1, 0, 0, 1, 0, 0.000000000000039746)"><g clip-path="url(#a185c11496)"><path fill="#ffffff" d="M 0 0 L 1439.648438 0 L 1439.648438 810 L 0 810 Z M 0 0 " fill-opacity="1" fill-rule="nonzero"/></g></g><path fill="#7099a6" d="M 709.621094 111.050781 L 709.621094 141.117188 L 655.820312 141.117188 L 655.820312 160.671875 L 709.621094 160.671875 L 709.621094 220.558594 L 730.648438 220.558594 L 730.648438 160.671875 L 785.796875 160.671875 L 785.796875 141.117188 L 730.648438 141.117188 L 730.648438 81.105469 L 709.621094 81.105469 Z M 709.621094 111.050781 " fill-opacity="1" fill-rule="nonzero"/><path fill="#eb912c" d="M 533.792969 187.316406 L 533.792969 230.949219 L 452.359375 230.949219 L 452.359375 258.324219 L 533.792969 258.324219 L 533.792969 346.9375 L 563.992188 346.9375 L 563.992188 258.324219 L 646.648438 258.324219 L 646.648438 230.949219 L 563.992188 230.949219 L 563.992188 143.683594 L 533.792969 143.683594 Z M 533.792969 187.316406 " fill-opacity="1" fill-rule="nonzero"/><path fill="#59879b" d="M 875.054688 187.316406 L 875.054688 230.949219 L 793.621094 230.949219 L 793.621094 259.671875 L 875.054688 259.671875 L 875.054688 346.9375 L 906.476562 346.9375 L 906.476562 259.671875 L 987.910156 259.671875 L 987.910156 230.949219 L 906.476562 230.949219 L 906.476562 143.683594 L 875.054688 143.683594 Z M 875.054688 187.316406 " fill-opacity="1" fill-rule="nonzero"/><path fill="#e8762c" d="M 701.792969 335.9375 L 701.792969 384.824219 L 611.191406 384.824219 L 611.191406 421.246094 L 701.792969 421.246094 L 701.792969 519.023438 L 738.476562 519.023438 L 738.476562 421.246094 L 829.078125 421.246094 L 829.078125 384.824219 L 738.476562 384.824219 L 738.476562 287.046875 L 701.792969 287.046875 Z M 701.792969 335.9375 " fill-opacity="1" fill-rule="nonzero"/><g clip-path="url(#08a82d9436)"><path fill="#5b6591" d="M 968.226562 360.625 L 968.226562 391.300781 L 913.082031 391.300781 L 913.082031 416.113281 L 968.226562 416.113281 L 968.226562 477.34375 L 995.738281 477.34375 L 995.738281 416.113281 L 1050.882812 416.113281 L 1050.882812 391.300781 L 995.738281 391.300781 L 995.738281 330.070312 L 968.226562 330.070312 Z M 968.226562 360.625 " fill-opacity="1" fill-rule="nonzero"/></g><g clip-path="url(#d76484f45c)"><path fill="#7099a6" d="M 443.1875 363.3125 L 443.1875 392.644531 L 389.386719 392.644531 L 389.386719 413.421875 L 443.1875 413.421875 L 443.1875 472.089844 L 464.21875 472.089844 L 464.21875 413.421875 L 519.363281 411.46875 L 519.363281 392.644531 L 464.21875 392.644531 L 464.21875 333.980469 L 443.1875 333.980469 Z M 443.1875 363.3125 " fill-opacity="1" fill-rule="nonzero"/></g><path fill="#c72035" d="M 533.792969 501.421875 L 533.792969 545.054688 L 452.359375 545.054688 L 452.359375 573.777344 L 533.792969 573.777344 L 533.792969 661.042969 L 565.214844 661.042969 L 565.214844 573.777344 L 646.648438 573.777344 L 646.648438 545.054688 L 565.214844 545.054688 L 565.214844 457.789062 L 533.792969 457.789062 Z M 533.792969 501.421875 " fill-opacity="1" fill-rule="nonzero"/><path fill="#1f447e" d="M 875.054688 501.421875 L 875.054688 545.054688 L 793.621094 545.054688 L 793.621094 572.433594 L 875.054688 572.433594 L 875.054688 661.042969 L 906.476562 661.042969 L 906.476562 572.433594 L 987.910156 572.433594 L 987.910156 545.054688 L 906.476562 545.054688 L 906.476562 457.789062 L 875.054688 457.789062 Z M 875.054688 501.421875 " fill-opacity="1" fill-rule="nonzero"/><path fill="#5b6591" d="M 707.050781 612.277344 L 707.050781 642.832031 L 651.90625 642.832031 L 651.90625 667.640625 L 707.050781 667.640625 L 707.050781 728.875 L 734.5625 728.875 L 734.5625 667.640625 L 789.707031 667.640625 L 789.707031 642.832031 L 734.5625 642.832031 L 734.5625 581.597656 L 707.050781 581.597656 Z M 707.050781 612.277344 " fill-opacity="1" fill-rule="nonzero"/></svg>