<svg xmlns="http://www.w3.org/2000/svg" xmlns:xlink="http://www.w3.org/1999/xlink" width="1920" zoomAndPan="magnify" viewBox="0 0 1440 809.999993" height="1080" preserveAspectRatio="xMidYMid meet" version="1.0"><defs><clipPath id="706ad4c811"><path d="M 714.664062 391.425781 L 738.175781 391.425781 L 738.175781 418.574219 L 714.664062 418.574219 Z M 714.664062 391.425781 " clip-rule="nonzero"/></clipPath><clipPath id="2f90119a51"><path d="M 0.664062 0.425781 L 24.175781 0.425781 L 24.175781 27.574219 L 0.664062 27.574219 Z M 0.664062 0.425781 " clip-rule="nonzero"/></clipPath><clipPath id="05fe7ec390"><rect x="0" width="25" y="0" height="28"/></clipPath><clipPath id="8b22ee07ee"><path d="M 919 330 L 1057.308594 330 L 1057.308594 478 L 919 478 Z M 919 330 " clip-rule="nonzero"/></clipPath><clipPath id="5fcf937228"><path d="M 395.808594 333 L 526 333 L 526 473 L 395.808594 473 Z M 395.808594 333 " clip-rule="nonzero"/></clipPath></defs><g clip-path="url(#706ad4c811)"><g transform="matrix(1, 0, 0, 1, 714, 391)"><g clip-path="url(#05fe7ec390)"><g clip-path="url(#2f90119a51)"><path fill="#ffffff" d="M 0.664062 0.425781 L 24.175781 0.425781 L 24.175781 27.609375 L 0.664062 27.609375 Z M 0.664062 0.425781 " fill-opacity="1" fill-rule="nonzero"/></g></g></g></g><path fill="#7099a6" d="M 716.039062 111.050781 L 716.039062 141.117188 L 662.238281 141.117188 L 662.238281 160.671875 L 716.039062 160.671875 L 716.039062 220.558594 L 737.070312 220.558594 L 737.070312 160.671875 L 792.214844 160.671875 L 792.214844 141.117188 L 737.070312 141.117188 L 737.070312 81.105469 L 716.039062 81.105469 Z M 716.039062 111.050781 " fill-opacity="1" fill-rule="nonzero"/><path fill="#eb912c" d="M 540.210938 187.316406 L 540.210938 230.949219 L 458.777344 230.949219 L 458.777344 258.324219 L 540.210938 258.324219 L 540.210938 346.9375 L 570.414062 346.9375 L 570.414062 258.324219 L 653.070312 258.324219 L 653.070312 230.949219 L 570.414062 230.949219 L 570.414062 143.683594 L 540.210938 143.683594 Z M 540.210938 187.316406 " fill-opacity="1" fill-rule="nonzero"/><path fill="#59879b" d="M 881.476562 187.316406 L 881.476562 230.949219 L 800.042969 230.949219 L 800.042969 259.671875 L 881.476562 259.671875 L 881.476562 346.9375 L 912.898438 346.9375 L 912.898438 259.671875 L 994.332031 259.671875 L 994.332031 230.949219 L 912.898438 230.949219 L 912.898438 143.683594 L 881.476562 143.683594 Z M 881.476562 187.316406 " fill-opacity="1" fill-rule="nonzero"/><path fill="#e8762c" d="M 708.214844 335.9375 L 708.214844 384.824219 L 617.609375 384.824219 L 617.609375 421.246094 L 708.214844 421.246094 L 708.214844 519.023438 L 744.894531 519.023438 L 744.894531 421.246094 L 835.5 421.246094 L 835.5 384.824219 L 744.894531 384.824219 L 744.894531 287.046875 L 708.214844 287.046875 Z M 708.214844 335.9375 " fill-opacity="1" fill-rule="nonzero"/><g clip-path="url(#8b22ee07ee)"><path fill="#5b6591" d="M 974.644531 360.625 L 974.644531 391.300781 L 919.5 391.300781 L 919.5 416.113281 L 974.644531 416.113281 L 974.644531 477.34375 L 1002.15625 477.34375 L 1002.15625 416.113281 L 1057.300781 416.113281 L 1057.300781 391.300781 L 1002.15625 391.300781 L 1002.15625 330.070312 L 974.644531 330.070312 Z M 974.644531 360.625 " fill-opacity="1" fill-rule="nonzero"/></g><g clip-path="url(#5fcf937228)"><path fill="#7099a6" d="M 449.609375 363.3125 L 449.609375 392.644531 L 395.808594 392.644531 L 395.808594 413.421875 L 449.609375 413.421875 L 449.609375 472.089844 L 470.640625 472.089844 L 470.640625 413.421875 L 525.785156 411.46875 L 525.785156 392.644531 L 470.640625 392.644531 L 470.640625 333.980469 L 449.609375 333.980469 Z M 449.609375 363.3125 " fill-opacity="1" fill-rule="nonzero"/></g><path fill="#c72035" d="M 540.210938 501.421875 L 540.210938 545.054688 L 458.777344 545.054688 L 458.777344 573.777344 L 540.210938 573.777344 L 540.210938 661.042969 L 571.636719 661.042969 L 571.636719 573.777344 L 653.070312 573.777344 L 653.070312 545.054688 L 571.636719 545.054688 L 571.636719 457.789062 L 540.210938 457.789062 Z M 540.210938 501.421875 " fill-opacity="1" fill-rule="nonzero"/><path fill="#1f447e" d="M 881.476562 501.421875 L 881.476562 545.054688 L 800.042969 545.054688 L 800.042969 572.433594 L 881.476562 572.433594 L 881.476562 661.042969 L 912.898438 661.042969 L 912.898438 572.433594 L 994.332031 572.433594 L 994.332031 545.054688 L 912.898438 545.054688 L 912.898438 457.789062 L 881.476562 457.789062 Z M 881.476562 501.421875 " fill-opacity="1" fill-rule="nonzero"/><path fill="#5b6591" d="M 713.472656 612.277344 L 713.472656 642.832031 L 658.328125 642.832031 L 658.328125 667.640625 L 713.472656 667.640625 L 713.472656 728.875 L 740.984375 728.875 L 740.984375 667.640625 L 796.128906 667.640625 L 796.128906 642.832031 L 740.984375 642.832031 L 740.984375 581.597656 L 713.472656 581.597656 Z M 713.472656 612.277344 " fill-opacity="1" fill-rule="nonzero"/></svg>