<svg xmlns="http://www.w3.org/2000/svg" xmlns:xlink="http://www.w3.org/1999/xlink" width="600" zoomAndPan="magnify" viewBox="0 0 450 449.999984" height="600" preserveAspectRatio="xMidYMid meet" version="1.0"><defs><clipPath id="e5d4c0a286"><path d="M 199.644531 194.503906 L 214.355469 194.503906 L 214.355469 211.496094 L 199.644531 211.496094 Z M 199.644531 194.503906 " clip-rule="nonzero"/></clipPath><clipPath id="557a8ab00c"><path d="M 0.644531 0.503906 L 15.355469 0.503906 L 15.355469 17.496094 L 0.644531 17.496094 Z M 0.644531 0.503906 " clip-rule="nonzero"/></clipPath><clipPath id="aaec63ab28"><rect x="0" width="16" y="0" height="18"/></clipPath><clipPath id="29ce2e41f2"><path d="M 166 0.226562 L 249 0.226562 L 249 88 L 166 88 Z M 166 0.226562 " clip-rule="nonzero"/></clipPath><clipPath id="25eba3da9b"><path d="M 327 156 L 414.050781 156 L 414.050781 249 L 327 249 Z M 327 156 " clip-rule="nonzero"/></clipPath><clipPath id="cbe521b5d2"><path d="M 0.0898438 158 L 82 158 L 82 246 L 0.0898438 246 Z M 0.0898438 158 " clip-rule="nonzero"/></clipPath><clipPath id="7df67b3f09"><rect x="0" width="415" y="0" height="407"/></clipPath></defs><g transform="matrix(1, 0, 0, 1, 18, 22)"><g clip-path="url(#7df67b3f09)"><g clip-path="url(#e5d4c0a286)"><g transform="matrix(1, 0, 0, 1, 199, 194)"><g clip-path="url(#aaec63ab28)"><g clip-path="url(#557a8ab00c)"><path fill="#ffffff" d="M 0.644531 0.503906 L 15.355469 0.503906 L 15.355469 17.515625 L 0.644531 17.515625 Z M 0.644531 0.503906 " fill-opacity="1" fill-rule="nonzero"/></g></g></g></g><g clip-path="url(#29ce2e41f2)"><path fill="#7099a6" d="M 200.488281 19.039062 L 200.488281 37.871094 L 166.820312 37.871094 L 166.820312 50.117188 L 200.488281 50.117188 L 200.488281 87.621094 L 213.648438 87.621094 L 213.648438 50.117188 L 248.15625 50.117188 L 248.15625 37.871094 L 213.648438 37.871094 L 213.648438 0.289062 L 200.488281 0.289062 Z M 200.488281 19.039062 " fill-opacity="1" fill-rule="nonzero"/></g><path fill="#eb912c" d="M 90.453125 66.800781 L 90.453125 94.128906 L 39.496094 94.128906 L 39.496094 111.273438 L 90.453125 111.273438 L 90.453125 166.765625 L 109.355469 166.765625 L 109.355469 111.273438 L 161.082031 111.273438 L 161.082031 94.128906 L 109.355469 94.128906 L 109.355469 39.476562 L 90.453125 39.476562 Z M 90.453125 66.800781 " fill-opacity="1" fill-rule="nonzero"/><path fill="#59879b" d="M 304.015625 66.800781 L 304.015625 94.128906 L 253.054688 94.128906 L 253.054688 112.113281 L 304.015625 112.113281 L 304.015625 166.765625 L 323.679688 166.765625 L 323.679688 112.113281 L 374.640625 112.113281 L 374.640625 94.128906 L 323.679688 94.128906 L 323.679688 39.476562 L 304.015625 39.476562 Z M 304.015625 66.800781 " fill-opacity="1" fill-rule="nonzero"/><path fill="#e8762c" d="M 195.589844 159.875 L 195.589844 190.492188 L 138.890625 190.492188 L 138.890625 213.300781 L 195.589844 213.300781 L 195.589844 274.535156 L 218.542969 274.535156 L 218.542969 213.300781 L 275.242188 213.300781 L 275.242188 190.492188 L 218.542969 190.492188 L 218.542969 129.261719 L 195.589844 129.261719 Z M 195.589844 159.875 " fill-opacity="1" fill-rule="nonzero"/><g clip-path="url(#25eba3da9b)"><path fill="#5b6591" d="M 362.320312 175.339844 L 362.320312 194.550781 L 327.8125 194.550781 L 327.8125 210.085938 L 362.320312 210.085938 L 362.320312 248.433594 L 379.535156 248.433594 L 379.535156 210.085938 L 414.046875 210.085938 L 414.046875 194.550781 L 379.535156 194.550781 L 379.535156 156.203125 L 362.320312 156.203125 Z M 362.320312 175.339844 " fill-opacity="1" fill-rule="nonzero"/></g><g clip-path="url(#cbe521b5d2)"><path fill="#7099a6" d="M 33.757812 177.023438 L 33.757812 195.390625 L 0.0898438 195.390625 L 0.0898438 208.402344 L 33.757812 208.402344 L 33.757812 245.144531 L 46.917969 245.144531 L 46.917969 208.402344 L 81.425781 207.179688 L 81.425781 195.390625 L 46.917969 195.390625 L 46.917969 158.652344 L 33.757812 158.652344 Z M 33.757812 177.023438 " fill-opacity="1" fill-rule="nonzero"/></g><path fill="#c72035" d="M 90.453125 263.515625 L 90.453125 290.839844 L 39.496094 290.839844 L 39.496094 308.828125 L 90.453125 308.828125 L 90.453125 363.476562 L 110.121094 363.476562 L 110.121094 308.828125 L 161.082031 308.828125 L 161.082031 290.839844 L 110.121094 290.839844 L 110.121094 236.1875 L 90.453125 236.1875 Z M 90.453125 263.515625 " fill-opacity="1" fill-rule="nonzero"/><path fill="#1f447e" d="M 304.015625 263.515625 L 304.015625 290.839844 L 253.054688 290.839844 L 253.054688 307.984375 L 304.015625 307.984375 L 304.015625 363.476562 L 323.679688 363.476562 L 323.679688 307.984375 L 374.640625 307.984375 L 374.640625 290.839844 L 323.679688 290.839844 L 323.679688 236.1875 L 304.015625 236.1875 Z M 304.015625 263.515625 " fill-opacity="1" fill-rule="nonzero"/><path fill="#5b6591" d="M 198.878906 332.9375 L 198.878906 352.074219 L 164.371094 352.074219 L 164.371094 367.609375 L 198.878906 367.609375 L 198.878906 405.957031 L 216.097656 405.957031 L 216.097656 367.609375 L 250.605469 367.609375 L 250.605469 352.074219 L 216.097656 352.074219 L 216.097656 313.726562 L 198.878906 313.726562 Z M 198.878906 332.9375 " fill-opacity="1" fill-rule="nonzero"/></g></g></svg>